<mxfile host="Electron" agent="Mozilla/5.0 (X11; Linux x86_64) AppleWebKit/537.36 (KHTML, like Gecko) draw.io/26.0.4 Chrome/128.0.6613.186 Electron/32.3.0 Safari/537.36" version="26.0.4">
  <diagram id="C5RBs43oDa-KdzZeNtuy" name="Page-1">
    <mxGraphModel dx="2555" dy="996" grid="1" gridSize="10" guides="1" tooltips="1" connect="1" arrows="1" fold="1" page="1" pageScale="1" pageWidth="827" pageHeight="1169" math="0" shadow="0">
      <root>
        <mxCell id="WIyWlLk6GJQsqaUBKTNV-0" />
        <mxCell id="WIyWlLk6GJQsqaUBKTNV-1" parent="WIyWlLk6GJQsqaUBKTNV-0" />
        <mxCell id="lqIP3oIK8RdthBuSsfP8-9" style="rounded=0;orthogonalLoop=1;jettySize=auto;html=1;" parent="WIyWlLk6GJQsqaUBKTNV-1" source="zkfFHV4jXpPFQw0GAbJ--0" target="lqIP3oIK8RdthBuSsfP8-6" edge="1">
          <mxGeometry relative="1" as="geometry" />
        </mxCell>
        <mxCell id="zkfFHV4jXpPFQw0GAbJ--0" value="Mesh File (*.gltf)" style="swimlane;fontStyle=2;align=center;verticalAlign=top;childLayout=stackLayout;horizontal=1;startSize=26;horizontalStack=0;resizeParent=1;resizeLast=0;collapsible=1;marginBottom=0;rounded=0;shadow=0;strokeWidth=1;" parent="WIyWlLk6GJQsqaUBKTNV-1" vertex="1">
          <mxGeometry x="-50" y="400" width="160" height="40" as="geometry">
            <mxRectangle x="230" y="140" width="160" height="26" as="alternateBounds" />
          </mxGeometry>
        </mxCell>
        <mxCell id="lqIP3oIK8RdthBuSsfP8-4" value="EntityManager" style="swimlane;whiteSpace=wrap;html=1;" parent="WIyWlLk6GJQsqaUBKTNV-1" vertex="1">
          <mxGeometry x="-710" y="490" width="350" height="330" as="geometry" />
        </mxCell>
        <mxCell id="lqIP3oIK8RdthBuSsfP8-5" value="AssetManager" style="swimlane;whiteSpace=wrap;html=1;" parent="WIyWlLk6GJQsqaUBKTNV-1" vertex="1">
          <mxGeometry x="170" y="320" width="580" height="410" as="geometry" />
        </mxCell>
        <mxCell id="lqIP3oIK8RdthBuSsfP8-6" value="loadModelsFromDisk()" style="swimlane;fontStyle=2;align=center;verticalAlign=top;childLayout=stackLayout;horizontal=1;startSize=26;horizontalStack=0;resizeParent=1;resizeLast=0;collapsible=1;marginBottom=0;rounded=0;shadow=0;strokeWidth=1;" parent="lqIP3oIK8RdthBuSsfP8-5" vertex="1">
          <mxGeometry x="30" y="120" width="160" height="80" as="geometry">
            <mxRectangle x="230" y="140" width="160" height="26" as="alternateBounds" />
          </mxGeometry>
        </mxCell>
        <mxCell id="lqIP3oIK8RdthBuSsfP8-7" value="Primitives" style="text;align=left;verticalAlign=top;spacingLeft=4;spacingRight=4;overflow=hidden;rotatable=0;points=[[0,0.5],[1,0.5]];portConstraint=eastwest;" parent="lqIP3oIK8RdthBuSsfP8-6" vertex="1">
          <mxGeometry y="26" width="160" height="26" as="geometry" />
        </mxCell>
        <mxCell id="lqIP3oIK8RdthBuSsfP8-8" value="Materials" style="text;align=left;verticalAlign=top;spacingLeft=4;spacingRight=4;overflow=hidden;rotatable=0;points=[[0,0.5],[1,0.5]];portConstraint=eastwest;rounded=0;shadow=0;html=0;" parent="lqIP3oIK8RdthBuSsfP8-6" vertex="1">
          <mxGeometry y="52" width="160" height="26" as="geometry" />
        </mxCell>
        <mxCell id="lqIP3oIK8RdthBuSsfP8-10" style="rounded=0;orthogonalLoop=1;jettySize=auto;html=1;endArrow=ERzeroToMany;endFill=0;strokeWidth=1;" parent="lqIP3oIK8RdthBuSsfP8-5" source="lqIP3oIK8RdthBuSsfP8-6" target="lqIP3oIK8RdthBuSsfP8-11" edge="1">
          <mxGeometry relative="1" as="geometry">
            <mxPoint x="140" y="190" as="sourcePoint" />
            <mxPoint x="160" y="240" as="targetPoint" />
          </mxGeometry>
        </mxCell>
        <mxCell id="QgqgZpqRU5FC-0Zm9NH--2" style="rounded=0;orthogonalLoop=1;jettySize=auto;html=1;endArrow=ERmany;endFill=0;" parent="lqIP3oIK8RdthBuSsfP8-5" source="lqIP3oIK8RdthBuSsfP8-11" target="QgqgZpqRU5FC-0Zm9NH--1" edge="1">
          <mxGeometry relative="1" as="geometry" />
        </mxCell>
        <mxCell id="QgqgZpqRU5FC-0Zm9NH--4" style="rounded=0;orthogonalLoop=1;jettySize=auto;html=1;endArrow=ERzeroToMany;endFill=0;" parent="lqIP3oIK8RdthBuSsfP8-5" source="lqIP3oIK8RdthBuSsfP8-11" target="QgqgZpqRU5FC-0Zm9NH--5" edge="1">
          <mxGeometry relative="1" as="geometry">
            <mxPoint x="440" y="120" as="targetPoint" />
          </mxGeometry>
        </mxCell>
        <mxCell id="lqIP3oIK8RdthBuSsfP8-11" value="ModelAsset" style="swimlane;fontStyle=2;align=center;verticalAlign=top;childLayout=stackLayout;horizontal=1;startSize=26;horizontalStack=0;resizeParent=1;resizeLast=0;collapsible=1;marginBottom=0;rounded=0;shadow=0;strokeWidth=1;" parent="lqIP3oIK8RdthBuSsfP8-5" vertex="1">
          <mxGeometry x="220" y="185" width="160" height="40" as="geometry">
            <mxRectangle x="230" y="140" width="160" height="26" as="alternateBounds" />
          </mxGeometry>
        </mxCell>
        <mxCell id="lqIP3oIK8RdthBuSsfP8-12" value="ImageResource" style="swimlane;fontStyle=2;align=center;verticalAlign=top;childLayout=stackLayout;horizontal=1;startSize=26;horizontalStack=0;resizeParent=1;resizeLast=0;collapsible=1;marginBottom=0;rounded=0;shadow=0;strokeWidth=1;" parent="lqIP3oIK8RdthBuSsfP8-5" vertex="1">
          <mxGeometry x="370" y="290" width="160" height="75" as="geometry">
            <mxRectangle x="230" y="140" width="160" height="26" as="alternateBounds" />
          </mxGeometry>
        </mxCell>
        <mxCell id="lqIP3oIK8RdthBuSsfP8-28" style="edgeStyle=orthogonalEdgeStyle;rounded=0;orthogonalLoop=1;jettySize=auto;html=1;" parent="lqIP3oIK8RdthBuSsfP8-5" source="lqIP3oIK8RdthBuSsfP8-15" target="lqIP3oIK8RdthBuSsfP8-12" edge="1">
          <mxGeometry relative="1" as="geometry" />
        </mxCell>
        <mxCell id="lqIP3oIK8RdthBuSsfP8-15" value="loadImageFromDisk()" style="swimlane;fontStyle=2;align=center;verticalAlign=top;childLayout=stackLayout;horizontal=1;startSize=26;horizontalStack=0;resizeParent=1;resizeLast=0;collapsible=1;marginBottom=0;rounded=0;shadow=0;strokeWidth=1;" parent="lqIP3oIK8RdthBuSsfP8-5" vertex="1">
          <mxGeometry x="40" y="290" width="160" height="104" as="geometry">
            <mxRectangle x="230" y="140" width="160" height="26" as="alternateBounds" />
          </mxGeometry>
        </mxCell>
        <mxCell id="lqIP3oIK8RdthBuSsfP8-16" value="width" style="text;align=left;verticalAlign=top;spacingLeft=4;spacingRight=4;overflow=hidden;rotatable=0;points=[[0,0.5],[1,0.5]];portConstraint=eastwest;" parent="lqIP3oIK8RdthBuSsfP8-15" vertex="1">
          <mxGeometry y="26" width="160" height="26" as="geometry" />
        </mxCell>
        <mxCell id="lqIP3oIK8RdthBuSsfP8-24" value="height" style="text;align=left;verticalAlign=top;spacingLeft=4;spacingRight=4;overflow=hidden;rotatable=0;points=[[0,0.5],[1,0.5]];portConstraint=eastwest;" parent="lqIP3oIK8RdthBuSsfP8-15" vertex="1">
          <mxGeometry y="52" width="160" height="26" as="geometry" />
        </mxCell>
        <mxCell id="lqIP3oIK8RdthBuSsfP8-25" value="data" style="text;align=left;verticalAlign=top;spacingLeft=4;spacingRight=4;overflow=hidden;rotatable=0;points=[[0,0.5],[1,0.5]];portConstraint=eastwest;" parent="lqIP3oIK8RdthBuSsfP8-15" vertex="1">
          <mxGeometry y="78" width="160" height="26" as="geometry" />
        </mxCell>
        <mxCell id="QgqgZpqRU5FC-0Zm9NH--6" style="rounded=0;orthogonalLoop=1;jettySize=auto;html=1;endArrow=ERone;endFill=0;startArrow=ERzeroToMany;startFill=0;" parent="lqIP3oIK8RdthBuSsfP8-5" source="QgqgZpqRU5FC-0Zm9NH--1" target="QgqgZpqRU5FC-0Zm9NH--5" edge="1">
          <mxGeometry relative="1" as="geometry" />
        </mxCell>
        <mxCell id="QgqgZpqRU5FC-0Zm9NH--1" value="MeshAsset" style="swimlane;fontStyle=2;align=center;verticalAlign=top;childLayout=stackLayout;horizontal=1;startSize=26;horizontalStack=0;resizeParent=1;resizeLast=0;collapsible=1;marginBottom=0;rounded=0;shadow=0;strokeWidth=1;" parent="lqIP3oIK8RdthBuSsfP8-5" vertex="1">
          <mxGeometry x="407" y="80" width="160" height="40" as="geometry">
            <mxRectangle x="230" y="140" width="160" height="26" as="alternateBounds" />
          </mxGeometry>
        </mxCell>
        <mxCell id="QgqgZpqRU5FC-0Zm9NH--5" value="MaterialAsset" style="swimlane;fontStyle=2;align=center;verticalAlign=top;childLayout=stackLayout;horizontal=1;startSize=26;horizontalStack=0;resizeParent=1;resizeLast=0;collapsible=1;marginBottom=0;rounded=0;shadow=0;strokeWidth=1;" parent="lqIP3oIK8RdthBuSsfP8-5" vertex="1">
          <mxGeometry x="407" y="185" width="160" height="40" as="geometry">
            <mxRectangle x="230" y="140" width="160" height="26" as="alternateBounds" />
          </mxGeometry>
        </mxCell>
        <mxCell id="lqIP3oIK8RdthBuSsfP8-14" style="rounded=0;orthogonalLoop=1;jettySize=auto;html=1;entryX=0;entryY=0.5;entryDx=0;entryDy=0;" parent="WIyWlLk6GJQsqaUBKTNV-1" source="lqIP3oIK8RdthBuSsfP8-13" target="lqIP3oIK8RdthBuSsfP8-16" edge="1">
          <mxGeometry relative="1" as="geometry">
            <mxPoint x="380" y="580" as="targetPoint" />
          </mxGeometry>
        </mxCell>
        <mxCell id="lqIP3oIK8RdthBuSsfP8-13" value="Image File (*.png/*.jpg/etc)" style="swimlane;fontStyle=2;align=center;verticalAlign=top;childLayout=stackLayout;horizontal=1;startSize=26;horizontalStack=0;resizeParent=1;resizeLast=0;collapsible=1;marginBottom=0;rounded=0;shadow=0;strokeWidth=1;" parent="WIyWlLk6GJQsqaUBKTNV-1" vertex="1">
          <mxGeometry x="-50" y="592" width="160" height="30" as="geometry">
            <mxRectangle x="230" y="140" width="160" height="26" as="alternateBounds" />
          </mxGeometry>
        </mxCell>
        <mxCell id="LtJs68JttT3xY-3k2Mda-0" value="ModelComponent" style="swimlane;fontStyle=1;align=center;verticalAlign=top;childLayout=stackLayout;horizontal=1;startSize=26;horizontalStack=0;resizeParent=1;resizeParentMax=0;resizeLast=0;collapsible=1;marginBottom=0;whiteSpace=wrap;html=1;" parent="WIyWlLk6GJQsqaUBKTNV-1" vertex="1">
          <mxGeometry x="355" y="830" width="210" height="112" as="geometry" />
        </mxCell>
        <mxCell id="LtJs68JttT3xY-3k2Mda-1" value="+ field: type" style="text;strokeColor=none;fillColor=none;align=left;verticalAlign=top;spacingLeft=4;spacingRight=4;overflow=hidden;rotatable=0;points=[[0,0.5],[1,0.5]];portConstraint=eastwest;whiteSpace=wrap;html=1;" parent="LtJs68JttT3xY-3k2Mda-0" vertex="1">
          <mxGeometry y="26" width="210" height="26" as="geometry" />
        </mxCell>
        <mxCell id="LtJs68JttT3xY-3k2Mda-2" value="" style="line;strokeWidth=1;fillColor=none;align=left;verticalAlign=middle;spacingTop=-1;spacingLeft=3;spacingRight=3;rotatable=0;labelPosition=right;points=[];portConstraint=eastwest;strokeColor=inherit;" parent="LtJs68JttT3xY-3k2Mda-0" vertex="1">
          <mxGeometry y="52" width="210" height="8" as="geometry" />
        </mxCell>
        <mxCell id="LtJs68JttT3xY-3k2Mda-3" value="- meshes: MeshAsset&amp;amp;[]" style="text;strokeColor=none;fillColor=none;align=left;verticalAlign=top;spacingLeft=4;spacingRight=4;overflow=hidden;rotatable=0;points=[[0,0.5],[1,0.5]];portConstraint=eastwest;whiteSpace=wrap;html=1;" parent="LtJs68JttT3xY-3k2Mda-0" vertex="1">
          <mxGeometry y="60" width="210" height="26" as="geometry" />
        </mxCell>
        <mxCell id="QgqgZpqRU5FC-0Zm9NH--3" value="- materials: MaterialAsset&amp;amp;[]" style="text;strokeColor=none;fillColor=none;align=left;verticalAlign=top;spacingLeft=4;spacingRight=4;overflow=hidden;rotatable=0;points=[[0,0.5],[1,0.5]];portConstraint=eastwest;whiteSpace=wrap;html=1;" parent="LtJs68JttT3xY-3k2Mda-0" vertex="1">
          <mxGeometry y="86" width="210" height="26" as="geometry" />
        </mxCell>
        <mxCell id="LtJs68JttT3xY-3k2Mda-4" style="rounded=0;orthogonalLoop=1;jettySize=auto;html=1;endArrow=ERmany;endFill=0;" parent="WIyWlLk6GJQsqaUBKTNV-1" source="LtJs68JttT3xY-3k2Mda-0" target="QgqgZpqRU5FC-0Zm9NH--1" edge="1">
          <mxGeometry relative="1" as="geometry">
            <mxPoint x="800" y="270" as="targetPoint" />
          </mxGeometry>
        </mxCell>
        <mxCell id="QgqgZpqRU5FC-0Zm9NH--7" value="RenderingManager" style="swimlane;whiteSpace=wrap;html=1;" parent="WIyWlLk6GJQsqaUBKTNV-1" vertex="1">
          <mxGeometry x="940" y="340" width="2760" height="890" as="geometry" />
        </mxCell>
        <mxCell id="QgqgZpqRU5FC-0Zm9NH--11" value="Renderer" style="swimlane;whiteSpace=wrap;html=1;" parent="QgqgZpqRU5FC-0Zm9NH--7" vertex="1">
          <mxGeometry x="270" y="90" width="2370" height="740" as="geometry" />
        </mxCell>
        <mxCell id="QgqgZpqRU5FC-0Zm9NH--13" value="render(meshId)" style="rounded=0;whiteSpace=wrap;html=1;" parent="QgqgZpqRU5FC-0Zm9NH--11" vertex="1">
          <mxGeometry x="-70" y="270" width="100" height="30" as="geometry" />
        </mxCell>
        <mxCell id="QgqgZpqRU5FC-0Zm9NH--61" style="edgeStyle=none;shape=connector;rounded=0;orthogonalLoop=1;jettySize=auto;html=1;entryX=0;entryY=0.5;entryDx=0;entryDy=0;strokeColor=default;align=center;verticalAlign=middle;fontFamily=Helvetica;fontSize=11;fontColor=default;labelBackgroundColor=default;endArrow=classic;exitX=1;exitY=0.5;exitDx=0;exitDy=0;" parent="QgqgZpqRU5FC-0Zm9NH--11" source="QgqgZpqRU5FC-0Zm9NH--43" target="QgqgZpqRU5FC-0Zm9NH--49" edge="1">
          <mxGeometry relative="1" as="geometry" />
        </mxCell>
        <mxCell id="QgqgZpqRU5FC-0Zm9NH--70" style="edgeStyle=none;shape=connector;rounded=0;orthogonalLoop=1;jettySize=auto;html=1;entryX=0;entryY=0.5;entryDx=0;entryDy=0;strokeColor=default;align=center;verticalAlign=middle;fontFamily=Helvetica;fontSize=11;fontColor=default;labelBackgroundColor=default;endArrow=classic;exitX=1;exitY=0.75;exitDx=0;exitDy=0;" parent="QgqgZpqRU5FC-0Zm9NH--11" source="QgqgZpqRU5FC-0Zm9NH--43" target="QgqgZpqRU5FC-0Zm9NH--69" edge="1">
          <mxGeometry relative="1" as="geometry" />
        </mxCell>
        <mxCell id="QgqgZpqRU5FC-0Zm9NH--43" value="bindMaterial(MaterialData)" style="rounded=0;whiteSpace=wrap;html=1;" parent="QgqgZpqRU5FC-0Zm9NH--11" vertex="1">
          <mxGeometry x="-50" y="162.5" width="160" height="30" as="geometry" />
        </mxCell>
        <mxCell id="QgqgZpqRU5FC-0Zm9NH--15" value="loadMesh(ImportedMesh)" style="rounded=0;whiteSpace=wrap;html=1;" parent="QgqgZpqRU5FC-0Zm9NH--11" vertex="1">
          <mxGeometry x="-50" y="30" width="150" height="30" as="geometry" />
        </mxCell>
        <mxCell id="QgqgZpqRU5FC-0Zm9NH--33" value="bindPipeline(pipelineId)" style="rounded=0;whiteSpace=wrap;html=1;" parent="QgqgZpqRU5FC-0Zm9NH--11" vertex="1">
          <mxGeometry x="-30" y="80" width="140" height="30" as="geometry" />
        </mxCell>
        <mxCell id="QgqgZpqRU5FC-0Zm9NH--62" value="Pipeline" style="swimlane;whiteSpace=wrap;html=1;" parent="QgqgZpqRU5FC-0Zm9NH--11" vertex="1">
          <mxGeometry x="220" y="60" width="930" height="277.5" as="geometry" />
        </mxCell>
        <mxCell id="QgqgZpqRU5FC-0Zm9NH--65" style="edgeStyle=none;shape=connector;rounded=0;orthogonalLoop=1;jettySize=auto;html=1;entryX=0;entryY=0.5;entryDx=0;entryDy=0;strokeColor=default;align=center;verticalAlign=middle;fontFamily=Helvetica;fontSize=11;fontColor=default;labelBackgroundColor=default;endArrow=classic;exitX=1;exitY=0.25;exitDx=0;exitDy=0;" parent="QgqgZpqRU5FC-0Zm9NH--62" source="QgqgZpqRU5FC-0Zm9NH--49" target="QgqgZpqRU5FC-0Zm9NH--63" edge="1">
          <mxGeometry relative="1" as="geometry" />
        </mxCell>
        <mxCell id="QgqgZpqRU5FC-0Zm9NH--66" style="edgeStyle=none;shape=connector;rounded=0;orthogonalLoop=1;jettySize=auto;html=1;entryX=0;entryY=0.5;entryDx=0;entryDy=0;strokeColor=default;align=center;verticalAlign=middle;fontFamily=Helvetica;fontSize=11;fontColor=default;labelBackgroundColor=default;endArrow=classic;exitX=1;exitY=0.5;exitDx=0;exitDy=0;" parent="QgqgZpqRU5FC-0Zm9NH--62" source="QgqgZpqRU5FC-0Zm9NH--49" target="QgqgZpqRU5FC-0Zm9NH--64" edge="1">
          <mxGeometry relative="1" as="geometry" />
        </mxCell>
        <mxCell id="QgqgZpqRU5FC-0Zm9NH--68" style="edgeStyle=none;shape=connector;rounded=0;orthogonalLoop=1;jettySize=auto;html=1;exitX=1;exitY=0.75;exitDx=0;exitDy=0;entryX=0;entryY=0.5;entryDx=0;entryDy=0;strokeColor=default;align=center;verticalAlign=middle;fontFamily=Helvetica;fontSize=11;fontColor=default;labelBackgroundColor=default;endArrow=classic;" parent="QgqgZpqRU5FC-0Zm9NH--62" source="QgqgZpqRU5FC-0Zm9NH--49" target="QgqgZpqRU5FC-0Zm9NH--67" edge="1">
          <mxGeometry relative="1" as="geometry" />
        </mxCell>
        <mxCell id="QgqgZpqRU5FC-0Zm9NH--49" value="setUniform(name: string, data: type)" style="rounded=0;whiteSpace=wrap;html=1;" parent="QgqgZpqRU5FC-0Zm9NH--62" vertex="1">
          <mxGeometry x="-90" y="44" width="200" height="30" as="geometry" />
        </mxCell>
        <mxCell id="QgqgZpqRU5FC-0Zm9NH--56" value="Shader" style="swimlane;whiteSpace=wrap;html=1;" parent="QgqgZpqRU5FC-0Zm9NH--62" vertex="1">
          <mxGeometry x="610" y="52.5" width="260" height="211.5" as="geometry" />
        </mxCell>
        <mxCell id="QgqgZpqRU5FC-0Zm9NH--63" value="setVec2(name: string, data: vec2)" style="rounded=0;whiteSpace=wrap;html=1;" parent="QgqgZpqRU5FC-0Zm9NH--56" vertex="1">
          <mxGeometry x="-80" y="40" width="200" height="30" as="geometry" />
        </mxCell>
        <mxCell id="QgqgZpqRU5FC-0Zm9NH--67" value="....." style="rounded=0;whiteSpace=wrap;html=1;" parent="QgqgZpqRU5FC-0Zm9NH--56" vertex="1">
          <mxGeometry x="-80" y="125" width="200" height="30" as="geometry" />
        </mxCell>
        <mxCell id="QgqgZpqRU5FC-0Zm9NH--64" value="setInt(name: string, data: int)" style="rounded=0;whiteSpace=wrap;html=1;" parent="QgqgZpqRU5FC-0Zm9NH--56" vertex="1">
          <mxGeometry x="-80" y="85" width="200" height="30" as="geometry" />
        </mxCell>
        <mxCell id="QgqgZpqRU5FC-0Zm9NH--71" value="Uniform Sampler2D" style="swimlane;fontStyle=1;align=center;verticalAlign=top;childLayout=stackLayout;horizontal=1;startSize=26;horizontalStack=0;resizeParent=1;resizeParentMax=0;resizeLast=0;collapsible=1;marginBottom=0;whiteSpace=wrap;html=1;" parent="QgqgZpqRU5FC-0Zm9NH--56" vertex="1">
          <mxGeometry x="25" y="168.39" width="210" height="34" as="geometry" />
        </mxCell>
        <mxCell id="QgqgZpqRU5FC-0Zm9NH--75" value="" style="line;strokeWidth=1;fillColor=none;align=left;verticalAlign=middle;spacingTop=-1;spacingLeft=3;spacingRight=3;rotatable=0;labelPosition=right;points=[];portConstraint=eastwest;strokeColor=inherit;" parent="QgqgZpqRU5FC-0Zm9NH--71" vertex="1">
          <mxGeometry y="26" width="210" height="8" as="geometry" />
        </mxCell>
        <mxCell id="QgqgZpqRU5FC-0Zm9NH--69" value="setUniform(name: string, image: ImageAsset&amp;amp;)" style="rounded=0;whiteSpace=wrap;html=1;" parent="QgqgZpqRU5FC-0Zm9NH--62" vertex="1">
          <mxGeometry x="-90" y="197.5" width="200" height="30" as="geometry" />
        </mxCell>
        <mxCell id="Sy9BMXUZaaI7ciry_3LW-16" value="ConcretePipelineBuilder" style="swimlane;fontStyle=1;align=center;verticalAlign=top;childLayout=stackLayout;horizontal=1;startSize=26;horizontalStack=0;resizeParent=1;resizeParentMax=0;resizeLast=0;collapsible=1;marginBottom=0;whiteSpace=wrap;html=1;swimlaneLine=1;strokeWidth=1;perimeterSpacing=0;rounded=0;shadow=0;glass=0;" vertex="1" parent="QgqgZpqRU5FC-0Zm9NH--11">
          <mxGeometry x="50" y="550" width="250" height="112" as="geometry">
            <mxRectangle x="530" y="1260" width="120" height="40" as="alternateBounds" />
          </mxGeometry>
        </mxCell>
        <mxCell id="Sy9BMXUZaaI7ciry_3LW-18" value="+ attribs: Attrib[]" style="text;strokeColor=none;fillColor=none;align=left;verticalAlign=top;spacingLeft=4;spacingRight=4;overflow=hidden;rotatable=0;points=[[0,0.5],[1,0.5]];portConstraint=eastwest;whiteSpace=wrap;html=1;" vertex="1" parent="Sy9BMXUZaaI7ciry_3LW-16">
          <mxGeometry y="26" width="250" height="26" as="geometry" />
        </mxCell>
        <mxCell id="Sy9BMXUZaaI7ciry_3LW-19" value="+ uniforms: Uniform[]" style="text;strokeColor=none;fillColor=none;align=left;verticalAlign=top;spacingLeft=4;spacingRight=4;overflow=hidden;rotatable=0;points=[[0,0.5],[1,0.5]];portConstraint=eastwest;whiteSpace=wrap;html=1;" vertex="1" parent="Sy9BMXUZaaI7ciry_3LW-16">
          <mxGeometry y="52" width="250" height="26" as="geometry" />
        </mxCell>
        <mxCell id="Sy9BMXUZaaI7ciry_3LW-20" value="" style="line;strokeWidth=1;fillColor=none;align=left;verticalAlign=middle;spacingTop=-1;spacingLeft=3;spacingRight=3;rotatable=0;labelPosition=right;points=[];portConstraint=eastwest;strokeColor=inherit;" vertex="1" parent="Sy9BMXUZaaI7ciry_3LW-16">
          <mxGeometry y="78" width="250" height="8" as="geometry" />
        </mxCell>
        <mxCell id="Sy9BMXUZaaI7ciry_3LW-22" value="-&amp;nbsp;" style="text;strokeColor=none;fillColor=none;align=left;verticalAlign=top;spacingLeft=4;spacingRight=4;overflow=hidden;rotatable=0;points=[[0,0.5],[1,0.5]];portConstraint=eastwest;whiteSpace=wrap;html=1;" vertex="1" parent="Sy9BMXUZaaI7ciry_3LW-16">
          <mxGeometry y="86" width="250" height="26" as="geometry" />
        </mxCell>
        <mxCell id="QgqgZpqRU5FC-0Zm9NH--46" style="edgeStyle=none;shape=connector;rounded=0;orthogonalLoop=1;jettySize=auto;html=1;entryX=0;entryY=0.5;entryDx=0;entryDy=0;strokeColor=default;align=center;verticalAlign=middle;fontFamily=Helvetica;fontSize=11;fontColor=default;labelBackgroundColor=default;endArrow=classic;exitX=1;exitY=0.5;exitDx=0;exitDy=0;" parent="QgqgZpqRU5FC-0Zm9NH--7" source="QgqgZpqRU5FC-0Zm9NH--17" target="QgqgZpqRU5FC-0Zm9NH--15" edge="1">
          <mxGeometry relative="1" as="geometry">
            <mxPoint x="150" y="120" as="sourcePoint" />
          </mxGeometry>
        </mxCell>
        <mxCell id="QgqgZpqRU5FC-0Zm9NH--47" value="-&amp;gt;ImportedMesh" style="edgeLabel;html=1;align=center;verticalAlign=middle;resizable=0;points=[];fontFamily=Helvetica;fontSize=11;fontColor=default;labelBackgroundColor=default;" parent="QgqgZpqRU5FC-0Zm9NH--46" vertex="1" connectable="0">
          <mxGeometry x="-0.0834" y="2" relative="1" as="geometry">
            <mxPoint x="12" y="-3" as="offset" />
          </mxGeometry>
        </mxCell>
        <mxCell id="QgqgZpqRU5FC-0Zm9NH--17" value="loadMeshOnGPU(MeshAsset&amp;amp;)" style="rounded=0;whiteSpace=wrap;html=1;" parent="QgqgZpqRU5FC-0Zm9NH--7" vertex="1">
          <mxGeometry x="-80" y="90" width="190" height="30" as="geometry" />
        </mxCell>
        <mxCell id="QgqgZpqRU5FC-0Zm9NH--36" value="bindMeshToPipeline(meshId, pipelineId)" style="rounded=0;whiteSpace=wrap;html=1;" parent="QgqgZpqRU5FC-0Zm9NH--7" vertex="1">
          <mxGeometry x="-100" y="200" width="230" height="30" as="geometry" />
        </mxCell>
        <mxCell id="Sy9BMXUZaaI7ciry_3LW-2" value="getPipelineBuilder()" style="rounded=0;whiteSpace=wrap;html=1;" vertex="1" parent="QgqgZpqRU5FC-0Zm9NH--7">
          <mxGeometry x="-120" y="700" width="230" height="30" as="geometry" />
        </mxCell>
        <mxCell id="QgqgZpqRU5FC-0Zm9NH--18" style="rounded=0;orthogonalLoop=1;jettySize=auto;html=1;entryX=0;entryY=0.5;entryDx=0;entryDy=0;exitX=1;exitY=0.25;exitDx=0;exitDy=0;" parent="WIyWlLk6GJQsqaUBKTNV-1" source="QgqgZpqRU5FC-0Zm9NH--1" target="QgqgZpqRU5FC-0Zm9NH--17" edge="1">
          <mxGeometry relative="1" as="geometry">
            <mxPoint x="770" y="290" as="sourcePoint" />
          </mxGeometry>
        </mxCell>
        <mxCell id="QgqgZpqRU5FC-0Zm9NH--22" value="DrawData" style="swimlane;fontStyle=1;align=center;verticalAlign=top;childLayout=stackLayout;horizontal=1;startSize=26;horizontalStack=0;resizeParent=1;resizeParentMax=0;resizeLast=0;collapsible=1;marginBottom=0;whiteSpace=wrap;html=1;" parent="WIyWlLk6GJQsqaUBKTNV-1" vertex="1">
          <mxGeometry x="690" y="800" width="210" height="112" as="geometry" />
        </mxCell>
        <mxCell id="QgqgZpqRU5FC-0Zm9NH--40" value="+ pipelineId: int" style="text;strokeColor=none;fillColor=none;align=left;verticalAlign=top;spacingLeft=4;spacingRight=4;overflow=hidden;rotatable=0;points=[[0,0.5],[1,0.5]];portConstraint=eastwest;whiteSpace=wrap;html=1;" parent="QgqgZpqRU5FC-0Zm9NH--22" vertex="1">
          <mxGeometry y="26" width="210" height="26" as="geometry" />
        </mxCell>
        <mxCell id="QgqgZpqRU5FC-0Zm9NH--23" value="+ meshId: int" style="text;strokeColor=none;fillColor=none;align=left;verticalAlign=top;spacingLeft=4;spacingRight=4;overflow=hidden;rotatable=0;points=[[0,0.5],[1,0.5]];portConstraint=eastwest;whiteSpace=wrap;html=1;" parent="QgqgZpqRU5FC-0Zm9NH--22" vertex="1">
          <mxGeometry y="52" width="210" height="26" as="geometry" />
        </mxCell>
        <mxCell id="QgqgZpqRU5FC-0Zm9NH--29" value="+ material: MaterialData" style="text;strokeColor=none;fillColor=none;align=left;verticalAlign=top;spacingLeft=4;spacingRight=4;overflow=hidden;rotatable=0;points=[[0,0.5],[1,0.5]];portConstraint=eastwest;whiteSpace=wrap;html=1;" parent="QgqgZpqRU5FC-0Zm9NH--22" vertex="1">
          <mxGeometry y="78" width="210" height="26" as="geometry" />
        </mxCell>
        <mxCell id="QgqgZpqRU5FC-0Zm9NH--24" value="" style="line;strokeWidth=1;fillColor=none;align=left;verticalAlign=middle;spacingTop=-1;spacingLeft=3;spacingRight=3;rotatable=0;labelPosition=right;points=[];portConstraint=eastwest;strokeColor=inherit;" parent="QgqgZpqRU5FC-0Zm9NH--22" vertex="1">
          <mxGeometry y="104" width="210" height="8" as="geometry" />
        </mxCell>
        <mxCell id="QgqgZpqRU5FC-0Zm9NH--30" style="rounded=0;orthogonalLoop=1;jettySize=auto;html=1;entryX=1;entryY=0.5;entryDx=0;entryDy=0;exitX=0;exitY=0.5;exitDx=0;exitDy=0;" parent="WIyWlLk6GJQsqaUBKTNV-1" source="QgqgZpqRU5FC-0Zm9NH--23" target="LtJs68JttT3xY-3k2Mda-3" edge="1">
          <mxGeometry relative="1" as="geometry">
            <mxPoint x="510" y="890" as="targetPoint" />
          </mxGeometry>
        </mxCell>
        <mxCell id="QgqgZpqRU5FC-0Zm9NH--31" style="rounded=0;orthogonalLoop=1;jettySize=auto;html=1;entryX=1;entryY=0.5;entryDx=0;entryDy=0;exitX=0;exitY=0.5;exitDx=0;exitDy=0;" parent="WIyWlLk6GJQsqaUBKTNV-1" source="QgqgZpqRU5FC-0Zm9NH--29" target="QgqgZpqRU5FC-0Zm9NH--3" edge="1">
          <mxGeometry relative="1" as="geometry">
            <mxPoint x="710" y="820" as="sourcePoint" />
          </mxGeometry>
        </mxCell>
        <mxCell id="QgqgZpqRU5FC-0Zm9NH--32" style="rounded=0;orthogonalLoop=1;jettySize=auto;html=1;exitX=1;exitY=0.5;exitDx=0;exitDy=0;entryX=0;entryY=0.5;entryDx=0;entryDy=0;" parent="WIyWlLk6GJQsqaUBKTNV-1" source="QgqgZpqRU5FC-0Zm9NH--29" target="QgqgZpqRU5FC-0Zm9NH--33" edge="1">
          <mxGeometry relative="1" as="geometry">
            <mxPoint x="1060" y="700" as="targetPoint" />
          </mxGeometry>
        </mxCell>
        <mxCell id="QgqgZpqRU5FC-0Zm9NH--35" style="edgeStyle=none;shape=connector;rounded=0;orthogonalLoop=1;jettySize=auto;html=1;entryX=0;entryY=0.5;entryDx=0;entryDy=0;strokeColor=default;align=center;verticalAlign=middle;fontFamily=Helvetica;fontSize=11;fontColor=default;labelBackgroundColor=default;endArrow=classic;exitX=1;exitY=0.5;exitDx=0;exitDy=0;" parent="WIyWlLk6GJQsqaUBKTNV-1" source="QgqgZpqRU5FC-0Zm9NH--23" target="QgqgZpqRU5FC-0Zm9NH--13" edge="1">
          <mxGeometry relative="1" as="geometry" />
        </mxCell>
        <mxCell id="QgqgZpqRU5FC-0Zm9NH--39" style="edgeStyle=none;shape=connector;rounded=0;orthogonalLoop=1;jettySize=auto;html=1;entryX=0;entryY=0.5;entryDx=0;entryDy=0;strokeColor=default;align=center;verticalAlign=middle;fontFamily=Helvetica;fontSize=11;fontColor=default;labelBackgroundColor=default;endArrow=classic;exitX=1;exitY=0.75;exitDx=0;exitDy=0;" parent="WIyWlLk6GJQsqaUBKTNV-1" source="QgqgZpqRU5FC-0Zm9NH--1" target="QgqgZpqRU5FC-0Zm9NH--36" edge="1">
          <mxGeometry relative="1" as="geometry" />
        </mxCell>
        <mxCell id="QgqgZpqRU5FC-0Zm9NH--48" style="edgeStyle=none;shape=connector;rounded=0;orthogonalLoop=1;jettySize=auto;html=1;entryX=0;entryY=0.5;entryDx=0;entryDy=0;strokeColor=default;align=center;verticalAlign=middle;fontFamily=Helvetica;fontSize=11;fontColor=default;labelBackgroundColor=default;endArrow=classic;exitX=0.999;exitY=0.859;exitDx=0;exitDy=0;exitPerimeter=0;" parent="WIyWlLk6GJQsqaUBKTNV-1" source="QgqgZpqRU5FC-0Zm9NH--29" target="QgqgZpqRU5FC-0Zm9NH--43" edge="1">
          <mxGeometry relative="1" as="geometry" />
        </mxCell>
        <mxCell id="QgqgZpqRU5FC-0Zm9NH--89" style="edgeStyle=none;shape=connector;rounded=0;orthogonalLoop=1;jettySize=auto;html=1;strokeColor=default;align=center;verticalAlign=middle;fontFamily=Helvetica;fontSize=11;fontColor=default;labelBackgroundColor=default;endArrow=classic;exitX=0;exitY=0.5;exitDx=0;exitDy=0;" parent="WIyWlLk6GJQsqaUBKTNV-1" source="QgqgZpqRU5FC-0Zm9NH--77" target="QgqgZpqRU5FC-0Zm9NH--71" edge="1">
          <mxGeometry relative="1" as="geometry" />
        </mxCell>
        <mxCell id="QgqgZpqRU5FC-0Zm9NH--118" value="&quot;Use Unit 1&quot;" style="edgeLabel;html=1;align=center;verticalAlign=middle;resizable=0;points=[];fontFamily=Helvetica;fontSize=11;fontColor=default;labelBackgroundColor=default;" parent="QgqgZpqRU5FC-0Zm9NH--89" vertex="1" connectable="0">
          <mxGeometry x="0.5221" y="-2" relative="1" as="geometry">
            <mxPoint x="25" as="offset" />
          </mxGeometry>
        </mxCell>
        <mxCell id="Sy9BMXUZaaI7ciry_3LW-0" value="" style="group" vertex="1" connectable="0" parent="WIyWlLk6GJQsqaUBKTNV-1">
          <mxGeometry x="2540" y="480" width="1010" height="588" as="geometry" />
        </mxCell>
        <mxCell id="QgqgZpqRU5FC-0Zm9NH--91" value="" style="group" parent="Sy9BMXUZaaI7ciry_3LW-0" vertex="1" connectable="0">
          <mxGeometry y="220" width="130" height="200" as="geometry" />
        </mxCell>
        <mxCell id="QgqgZpqRU5FC-0Zm9NH--76" value="Texture Unit 1" style="swimlane;fontStyle=1;align=center;verticalAlign=top;childLayout=stackLayout;horizontal=1;startSize=26;horizontalStack=0;resizeParent=1;resizeParentMax=0;resizeLast=0;collapsible=1;marginBottom=0;whiteSpace=wrap;html=1;" parent="QgqgZpqRU5FC-0Zm9NH--91" vertex="1">
          <mxGeometry width="130" height="121.55555555555554" as="geometry" />
        </mxCell>
        <mxCell id="QgqgZpqRU5FC-0Zm9NH--77" value="+ id: int" style="text;strokeColor=none;fillColor=none;align=left;verticalAlign=top;spacingLeft=4;spacingRight=4;overflow=hidden;rotatable=0;points=[[0,0.5],[1,0.5]];portConstraint=eastwest;whiteSpace=wrap;html=1;" parent="QgqgZpqRU5FC-0Zm9NH--76" vertex="1">
          <mxGeometry y="26" width="130" height="28.88888888888889" as="geometry" />
        </mxCell>
        <mxCell id="QgqgZpqRU5FC-0Zm9NH--78" value="+ sampler: int" style="text;strokeColor=none;fillColor=none;align=left;verticalAlign=top;spacingLeft=4;spacingRight=4;overflow=hidden;rotatable=0;points=[[0,0.5],[1,0.5]];portConstraint=eastwest;whiteSpace=wrap;html=1;" parent="QgqgZpqRU5FC-0Zm9NH--76" vertex="1">
          <mxGeometry y="54.888888888888886" width="130" height="28.88888888888889" as="geometry" />
        </mxCell>
        <mxCell id="QgqgZpqRU5FC-0Zm9NH--88" value="+ texture: int" style="text;strokeColor=none;fillColor=none;align=left;verticalAlign=top;spacingLeft=4;spacingRight=4;overflow=hidden;rotatable=0;points=[[0,0.5],[1,0.5]];portConstraint=eastwest;whiteSpace=wrap;html=1;" parent="QgqgZpqRU5FC-0Zm9NH--76" vertex="1">
          <mxGeometry y="83.77777777777777" width="130" height="28.88888888888889" as="geometry" />
        </mxCell>
        <mxCell id="QgqgZpqRU5FC-0Zm9NH--79" value="" style="line;strokeWidth=1;fillColor=none;align=left;verticalAlign=middle;spacingTop=-1;spacingLeft=3;spacingRight=3;rotatable=0;labelPosition=right;points=[];portConstraint=eastwest;strokeColor=inherit;" parent="QgqgZpqRU5FC-0Zm9NH--76" vertex="1">
          <mxGeometry y="112.66666666666666" width="130" height="8.88888888888889" as="geometry" />
        </mxCell>
        <mxCell id="QgqgZpqRU5FC-0Zm9NH--80" value="Texture Unit 2" style="swimlane;fontStyle=1;align=center;verticalAlign=top;childLayout=stackLayout;horizontal=1;startSize=26;horizontalStack=0;resizeParent=1;resizeParentMax=0;resizeLast=0;collapsible=1;marginBottom=0;whiteSpace=wrap;html=1;" parent="QgqgZpqRU5FC-0Zm9NH--91" vertex="1">
          <mxGeometry y="111.11111111111111" width="130" height="34.888888888888886" as="geometry" />
        </mxCell>
        <mxCell id="QgqgZpqRU5FC-0Zm9NH--83" value="" style="line;strokeWidth=1;fillColor=none;align=left;verticalAlign=middle;spacingTop=-1;spacingLeft=3;spacingRight=3;rotatable=0;labelPosition=right;points=[];portConstraint=eastwest;strokeColor=inherit;" parent="QgqgZpqRU5FC-0Zm9NH--80" vertex="1">
          <mxGeometry y="26" width="130" height="8.888888888888888" as="geometry" />
        </mxCell>
        <mxCell id="QgqgZpqRU5FC-0Zm9NH--84" value="Texture Unit 3" style="swimlane;fontStyle=1;align=center;verticalAlign=top;childLayout=stackLayout;horizontal=1;startSize=26;horizontalStack=0;resizeParent=1;resizeParentMax=0;resizeLast=0;collapsible=1;marginBottom=0;whiteSpace=wrap;html=1;" parent="QgqgZpqRU5FC-0Zm9NH--91" vertex="1">
          <mxGeometry y="133.33333333333334" width="130" height="34.888888888888886" as="geometry" />
        </mxCell>
        <mxCell id="QgqgZpqRU5FC-0Zm9NH--85" value="" style="line;strokeWidth=1;fillColor=none;align=left;verticalAlign=middle;spacingTop=-1;spacingLeft=3;spacingRight=3;rotatable=0;labelPosition=right;points=[];portConstraint=eastwest;strokeColor=inherit;" parent="QgqgZpqRU5FC-0Zm9NH--84" vertex="1">
          <mxGeometry y="26" width="130" height="8.888888888888888" as="geometry" />
        </mxCell>
        <mxCell id="QgqgZpqRU5FC-0Zm9NH--86" value="...." style="swimlane;fontStyle=1;align=center;verticalAlign=top;childLayout=stackLayout;horizontal=1;startSize=26;horizontalStack=0;resizeParent=1;resizeParentMax=0;resizeLast=0;collapsible=1;marginBottom=0;whiteSpace=wrap;html=1;" parent="QgqgZpqRU5FC-0Zm9NH--91" vertex="1">
          <mxGeometry y="162.22222222222223" width="130" height="34.888888888888886" as="geometry" />
        </mxCell>
        <mxCell id="QgqgZpqRU5FC-0Zm9NH--87" value="" style="line;strokeWidth=1;fillColor=none;align=left;verticalAlign=middle;spacingTop=-1;spacingLeft=3;spacingRight=3;rotatable=0;labelPosition=right;points=[];portConstraint=eastwest;strokeColor=inherit;" parent="QgqgZpqRU5FC-0Zm9NH--86" vertex="1">
          <mxGeometry y="26" width="130" height="8.888888888888888" as="geometry" />
        </mxCell>
        <mxCell id="QgqgZpqRU5FC-0Zm9NH--92" value="Texture1" style="swimlane;fontStyle=1;align=center;verticalAlign=top;childLayout=stackLayout;horizontal=1;startSize=26;horizontalStack=0;resizeParent=1;resizeParentMax=0;resizeLast=0;collapsible=1;marginBottom=0;whiteSpace=wrap;html=1;" parent="Sy9BMXUZaaI7ciry_3LW-0" vertex="1">
          <mxGeometry x="280" y="224" width="210" height="86" as="geometry" />
        </mxCell>
        <mxCell id="QgqgZpqRU5FC-0Zm9NH--93" value="+ id: int" style="text;strokeColor=none;fillColor=none;align=left;verticalAlign=top;spacingLeft=4;spacingRight=4;overflow=hidden;rotatable=0;points=[[0,0.5],[1,0.5]];portConstraint=eastwest;whiteSpace=wrap;html=1;" parent="QgqgZpqRU5FC-0Zm9NH--92" vertex="1">
          <mxGeometry y="26" width="210" height="26" as="geometry" />
        </mxCell>
        <mxCell id="QgqgZpqRU5FC-0Zm9NH--106" value="+ image: bytes" style="text;strokeColor=none;fillColor=none;align=left;verticalAlign=top;spacingLeft=4;spacingRight=4;overflow=hidden;rotatable=0;points=[[0,0.5],[1,0.5]];portConstraint=eastwest;whiteSpace=wrap;html=1;" parent="QgqgZpqRU5FC-0Zm9NH--92" vertex="1">
          <mxGeometry y="52" width="210" height="26" as="geometry" />
        </mxCell>
        <mxCell id="QgqgZpqRU5FC-0Zm9NH--96" value="" style="line;strokeWidth=1;fillColor=none;align=left;verticalAlign=middle;spacingTop=-1;spacingLeft=3;spacingRight=3;rotatable=0;labelPosition=right;points=[];portConstraint=eastwest;strokeColor=inherit;" parent="QgqgZpqRU5FC-0Zm9NH--92" vertex="1">
          <mxGeometry y="78" width="210" height="8" as="geometry" />
        </mxCell>
        <mxCell id="QgqgZpqRU5FC-0Zm9NH--97" value="Sampler1 (Blurry)" style="swimlane;fontStyle=1;align=center;verticalAlign=top;childLayout=stackLayout;horizontal=1;startSize=26;horizontalStack=0;resizeParent=1;resizeParentMax=0;resizeLast=0;collapsible=1;marginBottom=0;whiteSpace=wrap;html=1;" parent="Sy9BMXUZaaI7ciry_3LW-0" vertex="1">
          <mxGeometry x="260" width="210" height="138" as="geometry" />
        </mxCell>
        <mxCell id="QgqgZpqRU5FC-0Zm9NH--98" value="+ id: int" style="text;strokeColor=none;fillColor=none;align=left;verticalAlign=top;spacingLeft=4;spacingRight=4;overflow=hidden;rotatable=0;points=[[0,0.5],[1,0.5]];portConstraint=eastwest;whiteSpace=wrap;html=1;" parent="QgqgZpqRU5FC-0Zm9NH--97" vertex="1">
          <mxGeometry y="26" width="210" height="26" as="geometry" />
        </mxCell>
        <mxCell id="QgqgZpqRU5FC-0Zm9NH--104" value="+ samplingProperty1: int" style="text;strokeColor=none;fillColor=none;align=left;verticalAlign=top;spacingLeft=4;spacingRight=4;overflow=hidden;rotatable=0;points=[[0,0.5],[1,0.5]];portConstraint=eastwest;whiteSpace=wrap;html=1;" parent="QgqgZpqRU5FC-0Zm9NH--97" vertex="1">
          <mxGeometry y="52" width="210" height="26" as="geometry" />
        </mxCell>
        <mxCell id="QgqgZpqRU5FC-0Zm9NH--108" value="+ samplingProperty2: int" style="text;strokeColor=none;fillColor=none;align=left;verticalAlign=top;spacingLeft=4;spacingRight=4;overflow=hidden;rotatable=0;points=[[0,0.5],[1,0.5]];portConstraint=eastwest;whiteSpace=wrap;html=1;" parent="QgqgZpqRU5FC-0Zm9NH--97" vertex="1">
          <mxGeometry y="78" width="210" height="26" as="geometry" />
        </mxCell>
        <mxCell id="QgqgZpqRU5FC-0Zm9NH--109" value="+ samplingProperty3: int" style="text;strokeColor=none;fillColor=none;align=left;verticalAlign=top;spacingLeft=4;spacingRight=4;overflow=hidden;rotatable=0;points=[[0,0.5],[1,0.5]];portConstraint=eastwest;whiteSpace=wrap;html=1;" parent="QgqgZpqRU5FC-0Zm9NH--97" vertex="1">
          <mxGeometry y="104" width="210" height="26" as="geometry" />
        </mxCell>
        <mxCell id="QgqgZpqRU5FC-0Zm9NH--101" value="" style="line;strokeWidth=1;fillColor=none;align=left;verticalAlign=middle;spacingTop=-1;spacingLeft=3;spacingRight=3;rotatable=0;labelPosition=right;points=[];portConstraint=eastwest;strokeColor=inherit;" parent="QgqgZpqRU5FC-0Zm9NH--97" vertex="1">
          <mxGeometry y="130" width="210" height="8" as="geometry" />
        </mxCell>
        <mxCell id="QgqgZpqRU5FC-0Zm9NH--111" value="Sampler2 (Pixelated)" style="swimlane;fontStyle=1;align=center;verticalAlign=top;childLayout=stackLayout;horizontal=1;startSize=26;horizontalStack=0;resizeParent=1;resizeParentMax=0;resizeLast=0;collapsible=1;marginBottom=0;whiteSpace=wrap;html=1;" parent="Sy9BMXUZaaI7ciry_3LW-0" vertex="1">
          <mxGeometry x="210" y="450" width="210" height="138" as="geometry" />
        </mxCell>
        <mxCell id="QgqgZpqRU5FC-0Zm9NH--112" value="+ id: int" style="text;strokeColor=none;fillColor=none;align=left;verticalAlign=top;spacingLeft=4;spacingRight=4;overflow=hidden;rotatable=0;points=[[0,0.5],[1,0.5]];portConstraint=eastwest;whiteSpace=wrap;html=1;" parent="QgqgZpqRU5FC-0Zm9NH--111" vertex="1">
          <mxGeometry y="26" width="210" height="26" as="geometry" />
        </mxCell>
        <mxCell id="QgqgZpqRU5FC-0Zm9NH--113" value="+ samplingProperty1: int" style="text;strokeColor=none;fillColor=none;align=left;verticalAlign=top;spacingLeft=4;spacingRight=4;overflow=hidden;rotatable=0;points=[[0,0.5],[1,0.5]];portConstraint=eastwest;whiteSpace=wrap;html=1;" parent="QgqgZpqRU5FC-0Zm9NH--111" vertex="1">
          <mxGeometry y="52" width="210" height="26" as="geometry" />
        </mxCell>
        <mxCell id="QgqgZpqRU5FC-0Zm9NH--114" value="+ samplingProperty2: int" style="text;strokeColor=none;fillColor=none;align=left;verticalAlign=top;spacingLeft=4;spacingRight=4;overflow=hidden;rotatable=0;points=[[0,0.5],[1,0.5]];portConstraint=eastwest;whiteSpace=wrap;html=1;" parent="QgqgZpqRU5FC-0Zm9NH--111" vertex="1">
          <mxGeometry y="78" width="210" height="26" as="geometry" />
        </mxCell>
        <mxCell id="QgqgZpqRU5FC-0Zm9NH--115" value="+ samplingProperty3: int" style="text;strokeColor=none;fillColor=none;align=left;verticalAlign=top;spacingLeft=4;spacingRight=4;overflow=hidden;rotatable=0;points=[[0,0.5],[1,0.5]];portConstraint=eastwest;whiteSpace=wrap;html=1;" parent="QgqgZpqRU5FC-0Zm9NH--111" vertex="1">
          <mxGeometry y="104" width="210" height="26" as="geometry" />
        </mxCell>
        <mxCell id="QgqgZpqRU5FC-0Zm9NH--116" value="" style="line;strokeWidth=1;fillColor=none;align=left;verticalAlign=middle;spacingTop=-1;spacingLeft=3;spacingRight=3;rotatable=0;labelPosition=right;points=[];portConstraint=eastwest;strokeColor=inherit;" parent="QgqgZpqRU5FC-0Zm9NH--111" vertex="1">
          <mxGeometry y="130" width="210" height="8" as="geometry" />
        </mxCell>
        <mxCell id="QgqgZpqRU5FC-0Zm9NH--119" value="Texture2" style="swimlane;fontStyle=1;align=center;verticalAlign=top;childLayout=stackLayout;horizontal=1;startSize=26;horizontalStack=0;resizeParent=1;resizeParentMax=0;resizeLast=0;collapsible=1;marginBottom=0;whiteSpace=wrap;html=1;" parent="Sy9BMXUZaaI7ciry_3LW-0" vertex="1">
          <mxGeometry x="530" y="224" width="210" height="86" as="geometry" />
        </mxCell>
        <mxCell id="QgqgZpqRU5FC-0Zm9NH--120" value="+ id: int" style="text;strokeColor=none;fillColor=none;align=left;verticalAlign=top;spacingLeft=4;spacingRight=4;overflow=hidden;rotatable=0;points=[[0,0.5],[1,0.5]];portConstraint=eastwest;whiteSpace=wrap;html=1;" parent="QgqgZpqRU5FC-0Zm9NH--119" vertex="1">
          <mxGeometry y="26" width="210" height="26" as="geometry" />
        </mxCell>
        <mxCell id="QgqgZpqRU5FC-0Zm9NH--121" value="+ image: bytes" style="text;strokeColor=none;fillColor=none;align=left;verticalAlign=top;spacingLeft=4;spacingRight=4;overflow=hidden;rotatable=0;points=[[0,0.5],[1,0.5]];portConstraint=eastwest;whiteSpace=wrap;html=1;" parent="QgqgZpqRU5FC-0Zm9NH--119" vertex="1">
          <mxGeometry y="52" width="210" height="26" as="geometry" />
        </mxCell>
        <mxCell id="QgqgZpqRU5FC-0Zm9NH--122" value="" style="line;strokeWidth=1;fillColor=none;align=left;verticalAlign=middle;spacingTop=-1;spacingLeft=3;spacingRight=3;rotatable=0;labelPosition=right;points=[];portConstraint=eastwest;strokeColor=inherit;" parent="QgqgZpqRU5FC-0Zm9NH--119" vertex="1">
          <mxGeometry y="78" width="210" height="8" as="geometry" />
        </mxCell>
        <mxCell id="QgqgZpqRU5FC-0Zm9NH--124" value="Texture3" style="swimlane;fontStyle=1;align=center;verticalAlign=top;childLayout=stackLayout;horizontal=1;startSize=26;horizontalStack=0;resizeParent=1;resizeParentMax=0;resizeLast=0;collapsible=1;marginBottom=0;whiteSpace=wrap;html=1;" parent="Sy9BMXUZaaI7ciry_3LW-0" vertex="1">
          <mxGeometry x="800" y="224" width="210" height="86" as="geometry" />
        </mxCell>
        <mxCell id="QgqgZpqRU5FC-0Zm9NH--125" value="+ id: int" style="text;strokeColor=none;fillColor=none;align=left;verticalAlign=top;spacingLeft=4;spacingRight=4;overflow=hidden;rotatable=0;points=[[0,0.5],[1,0.5]];portConstraint=eastwest;whiteSpace=wrap;html=1;" parent="QgqgZpqRU5FC-0Zm9NH--124" vertex="1">
          <mxGeometry y="26" width="210" height="26" as="geometry" />
        </mxCell>
        <mxCell id="QgqgZpqRU5FC-0Zm9NH--126" value="+ image: bytes" style="text;strokeColor=none;fillColor=none;align=left;verticalAlign=top;spacingLeft=4;spacingRight=4;overflow=hidden;rotatable=0;points=[[0,0.5],[1,0.5]];portConstraint=eastwest;whiteSpace=wrap;html=1;" parent="QgqgZpqRU5FC-0Zm9NH--124" vertex="1">
          <mxGeometry y="52" width="210" height="26" as="geometry" />
        </mxCell>
        <mxCell id="QgqgZpqRU5FC-0Zm9NH--127" value="" style="line;strokeWidth=1;fillColor=none;align=left;verticalAlign=middle;spacingTop=-1;spacingLeft=3;spacingRight=3;rotatable=0;labelPosition=right;points=[];portConstraint=eastwest;strokeColor=inherit;" parent="QgqgZpqRU5FC-0Zm9NH--124" vertex="1">
          <mxGeometry y="78" width="210" height="8" as="geometry" />
        </mxCell>
        <mxCell id="QgqgZpqRU5FC-0Zm9NH--129" value="&lt;b&gt;&lt;font style=&quot;font-size: 19px;&quot;&gt;Texture Queue&lt;/font&gt;&lt;/b&gt;" style="text;html=1;align=center;verticalAlign=middle;whiteSpace=wrap;rounded=0;fontFamily=Helvetica;fontSize=11;fontColor=default;labelBackgroundColor=default;" parent="Sy9BMXUZaaI7ciry_3LW-0" vertex="1">
          <mxGeometry x="620" y="170" width="60" height="30" as="geometry" />
        </mxCell>
        <mxCell id="QgqgZpqRU5FC-0Zm9NH--107" style="edgeStyle=none;shape=connector;rounded=0;orthogonalLoop=1;jettySize=auto;html=1;exitX=0;exitY=0.5;exitDx=0;exitDy=0;entryX=1;entryY=0.5;entryDx=0;entryDy=0;strokeColor=default;align=center;verticalAlign=middle;fontFamily=Helvetica;fontSize=11;fontColor=default;labelBackgroundColor=default;endArrow=classic;" parent="Sy9BMXUZaaI7ciry_3LW-0" source="QgqgZpqRU5FC-0Zm9NH--93" target="QgqgZpqRU5FC-0Zm9NH--88" edge="1">
          <mxGeometry relative="1" as="geometry" />
        </mxCell>
        <mxCell id="QgqgZpqRU5FC-0Zm9NH--105" style="edgeStyle=none;shape=connector;rounded=0;orthogonalLoop=1;jettySize=auto;html=1;exitX=0;exitY=0.5;exitDx=0;exitDy=0;entryX=1;entryY=0.5;entryDx=0;entryDy=0;strokeColor=default;align=center;verticalAlign=middle;fontFamily=Helvetica;fontSize=11;fontColor=default;labelBackgroundColor=default;endArrow=classic;" parent="Sy9BMXUZaaI7ciry_3LW-0" source="QgqgZpqRU5FC-0Zm9NH--98" target="QgqgZpqRU5FC-0Zm9NH--78" edge="1">
          <mxGeometry relative="1" as="geometry" />
        </mxCell>
        <mxCell id="QgqgZpqRU5FC-0Zm9NH--117" style="edgeStyle=none;shape=connector;rounded=0;orthogonalLoop=1;jettySize=auto;html=1;entryX=1;entryY=1;entryDx=0;entryDy=0;strokeColor=default;align=center;verticalAlign=middle;fontFamily=Helvetica;fontSize=11;fontColor=default;labelBackgroundColor=default;endArrow=classic;" parent="Sy9BMXUZaaI7ciry_3LW-0" source="QgqgZpqRU5FC-0Zm9NH--111" target="QgqgZpqRU5FC-0Zm9NH--76" edge="1">
          <mxGeometry relative="1" as="geometry" />
        </mxCell>
        <mxCell id="QgqgZpqRU5FC-0Zm9NH--123" style="edgeStyle=none;shape=connector;rounded=0;orthogonalLoop=1;jettySize=auto;html=1;entryX=1.003;entryY=0.182;entryDx=0;entryDy=0;strokeColor=default;align=center;verticalAlign=middle;fontFamily=Helvetica;fontSize=11;fontColor=default;labelBackgroundColor=default;endArrow=classic;exitX=0.002;exitY=0.154;exitDx=0;exitDy=0;exitPerimeter=0;entryPerimeter=0;" parent="Sy9BMXUZaaI7ciry_3LW-0" source="QgqgZpqRU5FC-0Zm9NH--119" target="QgqgZpqRU5FC-0Zm9NH--92" edge="1">
          <mxGeometry relative="1" as="geometry" />
        </mxCell>
        <mxCell id="QgqgZpqRU5FC-0Zm9NH--128" style="edgeStyle=none;shape=connector;rounded=0;orthogonalLoop=1;jettySize=auto;html=1;exitX=-0.004;exitY=0.164;exitDx=0;exitDy=0;entryX=1.017;entryY=0.154;entryDx=0;entryDy=0;entryPerimeter=0;strokeColor=default;align=center;verticalAlign=middle;fontFamily=Helvetica;fontSize=11;fontColor=default;labelBackgroundColor=default;endArrow=classic;exitPerimeter=0;" parent="Sy9BMXUZaaI7ciry_3LW-0" source="QgqgZpqRU5FC-0Zm9NH--124" target="QgqgZpqRU5FC-0Zm9NH--119" edge="1">
          <mxGeometry relative="1" as="geometry" />
        </mxCell>
        <mxCell id="Sy9BMXUZaaI7ciry_3LW-3" value="&amp;lt;interface&amp;gt;&amp;nbsp;&lt;span style=&quot;background-color: transparent; color: light-dark(rgb(0, 0, 0), rgb(255, 255, 255));&quot;&gt;PipelineBuilder&lt;/span&gt;" style="swimlane;fontStyle=1;align=center;verticalAlign=top;childLayout=stackLayout;horizontal=1;startSize=26;horizontalStack=0;resizeParent=1;resizeParentMax=0;resizeLast=0;collapsible=1;marginBottom=0;whiteSpace=wrap;html=1;swimlaneLine=1;strokeWidth=1;perimeterSpacing=0;rounded=0;shadow=0;glass=0;" vertex="1" parent="WIyWlLk6GJQsqaUBKTNV-1">
          <mxGeometry x="450" y="1080" width="250" height="108" as="geometry">
            <mxRectangle x="530" y="1260" width="120" height="40" as="alternateBounds" />
          </mxGeometry>
        </mxCell>
        <mxCell id="Sy9BMXUZaaI7ciry_3LW-4" value="+ pipelineId: int" style="text;strokeColor=none;fillColor=none;align=left;verticalAlign=top;spacingLeft=4;spacingRight=4;overflow=hidden;rotatable=0;points=[[0,0.5],[1,0.5]];portConstraint=eastwest;whiteSpace=wrap;html=1;" vertex="1" parent="Sy9BMXUZaaI7ciry_3LW-3">
          <mxGeometry y="26" width="250" height="22" as="geometry" />
        </mxCell>
        <mxCell id="Sy9BMXUZaaI7ciry_3LW-5" value="+ attribs: Attrib[]" style="text;strokeColor=none;fillColor=none;align=left;verticalAlign=top;spacingLeft=4;spacingRight=4;overflow=hidden;rotatable=0;points=[[0,0.5],[1,0.5]];portConstraint=eastwest;whiteSpace=wrap;html=1;" vertex="1" parent="Sy9BMXUZaaI7ciry_3LW-3">
          <mxGeometry y="48" width="250" height="26" as="geometry" />
        </mxCell>
        <mxCell id="Sy9BMXUZaaI7ciry_3LW-6" value="+ uniforms: Uniform[]" style="text;strokeColor=none;fillColor=none;align=left;verticalAlign=top;spacingLeft=4;spacingRight=4;overflow=hidden;rotatable=0;points=[[0,0.5],[1,0.5]];portConstraint=eastwest;whiteSpace=wrap;html=1;" vertex="1" parent="Sy9BMXUZaaI7ciry_3LW-3">
          <mxGeometry y="74" width="250" height="26" as="geometry" />
        </mxCell>
        <mxCell id="Sy9BMXUZaaI7ciry_3LW-7" value="" style="line;strokeWidth=1;fillColor=none;align=left;verticalAlign=middle;spacingTop=-1;spacingLeft=3;spacingRight=3;rotatable=0;labelPosition=right;points=[];portConstraint=eastwest;strokeColor=inherit;" vertex="1" parent="Sy9BMXUZaaI7ciry_3LW-3">
          <mxGeometry y="100" width="250" height="8" as="geometry" />
        </mxCell>
        <mxCell id="Sy9BMXUZaaI7ciry_3LW-14" style="rounded=0;orthogonalLoop=1;jettySize=auto;html=1;exitX=0;exitY=0.75;exitDx=0;exitDy=0;" edge="1" parent="WIyWlLk6GJQsqaUBKTNV-1" source="Sy9BMXUZaaI7ciry_3LW-2" target="Sy9BMXUZaaI7ciry_3LW-3">
          <mxGeometry relative="1" as="geometry">
            <mxPoint x="670" y="1120" as="targetPoint" />
          </mxGeometry>
        </mxCell>
      </root>
    </mxGraphModel>
  </diagram>
</mxfile>
